<svg width="180" height="180" viewBox="0 0 180 180" xmlns="http://www.w3.org/2000/svg">
  <defs>
    <linearGradient id="maskGrad" x1="0%" y1="0%" x2="100%" y2="100%">
      <stop offset="0%" style="stop-color:#1e3a8a;stop-opacity:1" />
      <stop offset="50%" style="stop-color:#3730a3;stop-opacity:1" />
      <stop offset="100%" style="stop-color:#1e40af;stop-opacity:1" />
    </linearGradient>
    <filter id="glow" x="-50%" y="-50%" width="200%" height="200%">
      <feGaussianBlur stdDeviation="4" result="coloredBlur"/>
      <feMerge> 
        <feMergeNode in="coloredBlur"/>
        <feMergeNode in="SourceGraphic"/>
      </feMerge>
    </filter>
  </defs>
  
  <!-- Background with subtle gradient -->
  <rect width="180" height="180" fill="url(#maskGrad)" rx="20"/>
  
  <!-- Main content -->
  <g transform="translate(30, 30)">
    <!-- Document -->
    <rect x="20" y="20" width="80" height="100" fill="white" rx="8" filter="url(#glow)"/>
    
    <!-- Header -->
    <rect x="30" y="35" width="45" height="3" fill="#e5e7eb" rx="1.5"/>
    <rect x="30" y="45" width="60" height="3" fill="#e5e7eb" rx="1.5"/>
    
    <!-- Signature area -->
    <rect x="30" y="60" width="60" height="35" fill="#f8fafc" rx="4" stroke="#e2e8f0"/>
    <path d="M35 75 Q50 68, 65 75 T85 72" stroke="#3b82f6" stroke-width="1.5" fill="none"/>
    
    <!-- Chain elements -->
    <g transform="translate(10, 10)">
      <rect x="0" y="0" width="10" height="10" fill="#10b981" rx="2"/>
      <rect x="8" y="0" width="10" height="10" fill="#059669" rx="2"/>
      <rect x="16" y="0" width="10" height="10" fill="#047857" rx="2"/>
      <line x1="10" y1="5" x2="16" y2="5" stroke="white" stroke-width="1"/>
      <line x1="18" y1="5" x2="24" y2="5" stroke="white" stroke-width="1"/>
    </g>
    
    <!-- Bottom lines -->
    <rect x="30" y="105" width="35" height="2" fill="#d1d5db" rx="1"/>
    <rect x="30" y="112" width="50" height="2" fill="#d1d5db" rx="1"/>
  </g>
  
  <!-- Verification badge -->
  <circle cx="145" cy="145" r="14" fill="#10b981"/>
  <path d="M140 145 L143 148 L150 141" stroke="white" stroke-width="1.5" fill="none"/>
</svg>
