<svg width="192" height="192" viewBox="0 0 192 192" xmlns="http://www.w3.org/2000/svg">
  <defs>
    <linearGradient id="grad1" x1="0%" y1="0%" x2="100%" y2="100%">
      <stop offset="0%" style="stop-color:#3b82f6;stop-opacity:1" />
      <stop offset="50%" style="stop-color:#8b5cf6;stop-opacity:1" />
      <stop offset="100%" style="stop-color:#06b6d4;stop-opacity:1" />
    </linearGradient>
    <filter id="shadow" x="-50%" y="-50%" width="200%" height="200%">
      <feDropShadow dx="2" dy="2" stdDeviation="4" flood-color="#00000030"/>
    </filter>
  </defs>
  
  <!-- Background -->
  <rect width="192" height="192" fill="url(#grad1)" rx="24"/>
  
  <!-- Main content -->
  <g transform="translate(32, 32)">
    <!-- Document shape -->
    <rect x="20" y="20" width="88" height="108" fill="white" rx="8" filter="url(#shadow)"/>
    
    <!-- Header lines -->
    <rect x="30" y="35" width="50" height="3" fill="#e5e7eb" rx="1.5"/>
    <rect x="30" y="45" width="68" height="3" fill="#e5e7eb" rx="1.5"/>
    
    <!-- Signature area -->
    <rect x="30" y="60" width="68" height="40" fill="#f3f4f6" rx="4" stroke="#d1d5db" stroke-width="1"/>
    
    <!-- Signature line -->
    <path d="M35 80 Q50 70, 65 80 T95 75" stroke="#3b82f6" stroke-width="2" fill="none"/>
    
    <!-- Blockchain elements -->
    <g transform="translate(10, 10)">
      <!-- Chain links -->
      <rect x="0" y="0" width="12" height="12" fill="#10b981" rx="2"/>
      <rect x="8" y="0" width="12" height="12" fill="#059669" rx="2"/>
      <rect x="16" y="0" width="12" height="12" fill="#047857" rx="2"/>
      
      <!-- Connection lines -->
      <line x1="12" y1="6" x2="16" y2="6" stroke="white" stroke-width="1"/>
      <line x1="20" y1="6" x2="24" y2="6" stroke="white" stroke-width="1"/>
    </g>
    
    <!-- Bottom text lines -->
    <rect x="30" y="110" width="40" height="2" fill="#d1d5db" rx="1"/>
    <rect x="30" y="118" width="55" height="2" fill="#d1d5db" rx="1"/>
  </g>
  
  <!-- Badge/verification mark -->
  <circle cx="152" cy="152" r="16" fill="#10b981"/>
  <path d="M146 152 L150 156 L158 148" stroke="white" stroke-width="2" fill="none"/>
</svg>
